<svg xmlns="http://www.w3.org/2000/svg" width="300" height="300">
  <path fill="none" pointer-events="none" d="M0 0h300v300H0z"/>
  <defs opacity=".25">
    <path d="M0 0h1400v980H0V0z" id="a" class="st0" opacity=".25"/>
  </defs>
  <path class="st4" d="M152.299 48.382l3.5-7c-1.1 0-2.3-.1-3.4-.1-57.5 0-104.1 46.6-104.1 104.1 0 57.5 46.6 104.1 104.1 104.1 3 0 5.9-.1 8.8-.4 19.3-20.5 43.9-55.6 43.9-101.2 0-75.2-52.8-99.5-52.8-99.5z" fill="#52f7df"/>
  <path class="st5" d="M256.499 145.382c0-56.3-44.8-102.2-100.7-104l-3.5 7s52.8 24.4 52.8 99.5c0 45.7-24.6 80.7-43.9 101.2 53.4-4.5 95.3-49.2 95.3-103.7z" fill="#fff"/>
  <path class="st2" d="M49.299 145.082c0 56.3 44.8 102.2 100.7 104l3.5-7s-52.8-24.4-52.8-99.5c0-45.7 24.6-80.7 43.9-101.2-53.4 4.5-95.3 49.2-95.3 103.7z" fill="#099"/>
  <path class="st8" d="M113.999 191.882h32.8v-40.9h-41.7c.6 14.3 3.7 28.1 8.9 40.9zM105.099 139.782h41.7v-40.9h-32.9c-5.2 12.9-8.2 26.6-8.8 40.9zM119.199 87.782h27.6v-34.6c-11.4 9.9-20.7 21.6-27.6 34.6zM106.699 202.982h-34.1c14.8 20.4 37.2 35 63 39.4-12.2-11.4-21.9-24.7-28.9-39.4zM210.899 139.782h39.9c-.8-14.7-4.9-28.6-11.5-40.9h-36.5c4.8 13 7.5 26.7 8.1 40.9zM146.799 237.582v-34.6h-27.6c6.9 13 16.2 24.7 27.6 34.6zM135.499 48.382c-25.8 4.5-48.2 19-62.9 39.4h34.1c7-14.7 16.7-28 28.8-39.4zM93.899 150.982h-26.1v-11.2h26.1c.6-14.2 3.3-28 8.1-40.9h-36.4c-7.4 13.8-11.7 29.7-11.7 46.5s4.2 32.6 11.7 46.5h36.4c-4.7-12.9-7.5-26.7-8.1-40.9zM198.099 87.782h34.1c-14.8-20.4-37.1-35-62.9-39.4 12.1 11.4 21.8 24.7 28.8 39.4zM210.899 150.982c-1.4 35.3-16.3 67.6-41.7 91.5 44.5-7.7 78.9-45.4 81.5-91.5h-39.8zM157.999 202.982v34.6c11.4-9.9 20.7-21.6 27.6-34.6h-27.6zM157.999 53.182v34.6h27.6c-6.9-13-16.2-24.7-27.6-34.6zM199.699 150.982h-41.7v40.9h32.8c5.3-12.8 8.3-26.6 8.9-40.9zM199.699 139.782c-.6-14.3-3.6-28.1-8.9-40.9h-32.9v40.9h41.8z" fill="none"/>
  <path d="M73.399 150.982zM155.799 254.982h-.9.9zM46.199 172.482c-.2-.7-.3-1.3-.5-2 .1.7.3 1.3.5 2zM45.499 169.682c-.1-.6-.2-1.1-.4-1.7.1.6.3 1.1.4 1.7zM44.999 167.282c-.2-.7-.3-1.5-.4-2.2.1.7.2 1.4.4 2.2zM44.399 164.182c-.1-.5-.2-1.1-.3-1.6.1.5.2 1.1.3 1.6zM43.599 158.882c-.1-.6-.1-1.2-.2-1.9 0 .6.1 1.3.2 1.9zM43.999 161.682c-.1-.7-.2-1.5-.3-2.2.1.8.2 1.5.3 2.2zM158.299 254.882h-.8.8zM161.399 254.682c-.3 0-.6 0-.8.1.3-.1.5-.1.8-.1zM49.299 182.582c-.2-.5-.4-1.1-.6-1.6.2.5.4 1.1.6 1.6zM50.399 185.482c-.3-.7-.6-1.4-.8-2.2.2.8.5 1.5.8 2.2zM143.799 254.682c-.8-.1-1.5-.1-2.3-.2.7.1 1.5.1 2.3.2zM146.699 254.882c-.9 0-1.8-.1-2.6-.2.8.1 1.7.2 2.6.2zM47.599 177.482c-.2-.6-.3-1.1-.5-1.7.1.6.3 1.1.5 1.7zM48.499 180.282c-.2-.7-.5-1.4-.7-2.2.2.8.4 1.5.7 2.2zM149.299 254.982c-.8 0-1.6-.1-2.4-.1.8 0 1.6.1 2.4.1zM46.799 174.982c-.2-.7-.4-1.3-.6-2 .3.7.5 1.4.6 2zM154.299 35.782h1.6-1.6zM51.299 187.682c-.3-.6-.5-1.3-.8-1.9.2.7.5 1.3.8 1.9zM174.999 252.682c-.3.1-.5.1-.8.2.3-.1.5-.1.8-.2zM152.299 35.782h1.6-1.6zM171.999 253.282c-.2 0-.5.1-.7.1.2 0 .4-.1.7-.1zM261.999 148.082v0zM177.399 252.182c-.3.1-.5.1-.8.2.3-.1.6-.2.8-.2zM156.399 35.782c.5 0 .9 0 1.4.1-.5 0-1 0-1.4-.1zM150.299 35.782h1.6-1.6zM158.399 35.882c.3 0 .6 0 .9.1-.3 0-.6-.1-.9-.1zM42.899 150.482c0-.5 0-1.1-.1-1.6 0 .5.1 1 .1 1.6zM163.999 254.382c-.3 0-.6.1-.9.1.3 0 .6 0 .9-.1zM43.299 156.082c-.1-.6-.1-1.1-.2-1.7.1.6.1 1.1.2 1.7zM43.099 153.582c-.1-.8-.1-1.5-.1-2.3 0 .8 0 1.6.1 2.3zM148.299 35.782h1.7-1.7zM42.799 147.882v-2.3 2.3zM166.799 254.082c-.2 0-.4.1-.6.1.2 0 .4-.1.6-.1zM169.599 253.682c-.3 0-.6.1-.9.1.3 0 .6 0 .9-.1zM42.899 139.782v-.3.3zM102.399 242.982c-.7-.4-1.5-.8-2.2-1.2.8.4 1.5.8 2.2 1.2zM114.599 248.282l-2.4-.9 2.4.9zM80.599 228.182c-.6-.5-1.2-1.1-1.8-1.6.6.6 1.2 1.1 1.8 1.6zM78.499 226.382c-.5-.5-1-.9-1.5-1.4.5.4 1 .9 1.5 1.4zM82.499 229.782c-.5-.5-1.1-.9-1.6-1.4.5.5 1 .9 1.6 1.4zM71.199 218.982c-.5-.6-1.1-1.2-1.6-1.8.6.6 1.1 1.2 1.6 1.8zM117.099 249.182c-.7-.2-1.4-.5-2.1-.7.7.2 1.4.5 2.1.7zM112.199 247.382c-.7-.3-1.5-.6-2.2-.9.7.3 1.5.6 2.2.9zM119.799 250.082c-.8-.3-1.6-.5-2.4-.8.8.3 1.6.6 2.4.8zM72.899 220.782c-.5-.5-1-1-1.4-1.5.4.5.9 1 1.4 1.5zM93.099 237.582l-1.8-1.2 1.8 1.2zM97.699 240.382c-1.4-.8-2.8-1.7-4.2-2.6 1.4.9 2.8 1.8 4.2 2.6zM104.699 244.082zM100.099 241.682c-.7-.4-1.3-.7-2-1.1.6.4 1.3.8 2 1.1zM69.299 216.882c-.4-.5-.9-1-1.3-1.5.5.5.9 1 1.3 1.5zM109.599 246.282c-1.5-.7-3-1.3-4.5-2.1 1.4.8 2.9 1.5 4.5 2.1zM91.099 236.182c-.7-.5-1.4-.9-2-1.4.6.5 1.3 1 2 1.4zM88.799 234.682c-.6-.4-1.2-.8-1.8-1.3.6.4 1.2.9 1.8 1.3zM86.699 233.082c-1.3-1-2.6-2-3.8-3 1.2 1 2.5 2 3.8 3zM62.999 208.782c-.5-.6-.9-1.3-1.3-1.9.4.6.8 1.2 1.3 1.9zM135.499 253.682c-.8-.1-1.6-.3-2.4-.4.8.2 1.6.3 2.4.4zM58.499 201.982c-.3-.6-.7-1.1-1-1.7.3.5.7 1.1 1 1.7zM261.899 150.782v0zM132.999 253.282c-.9-.2-1.7-.3-2.5-.5.8.2 1.6.4 2.5.5zM55.999 197.582c-.4-.7-.7-1.4-1.1-2.1.4.7.7 1.4 1.1 2.1zM140.999 254.482l-5.1-.6 5.1.6zM67.699 214.882c-.5-.6-1-1.2-1.5-1.9.5.7 1 1.3 1.5 1.9zM54.599 194.882c-.3-.5-.5-1.1-.8-1.6.3.5.5 1.1.8 1.6zM53.499 192.682c-.3-.7-.7-1.4-1-2.1.3.7.7 1.4 1 2.1zM64.399 210.682c-.4-.6-.8-1.1-1.2-1.7.4.6.8 1.2 1.2 1.7zM66.099 212.882c-.4-.6-.9-1.2-1.3-1.7.4.6.8 1.2 1.3 1.7zM122.199 250.782c-.8-.2-1.6-.5-2.3-.7.7.3 1.5.5 2.3.7zM127.499 252.182c-1.6-.4-3.3-.8-4.9-1.3 1.6.5 3.3.9 4.9 1.3zM59.999 204.282c-.4-.7-.8-1.3-1.2-2 .3.7.7 1.3 1.2 2zM52.299 190.082zM130.099 252.782c-.7-.2-1.5-.3-2.2-.5.7.2 1.5.3 2.2.5zM61.299 206.382c-.4-.5-.7-1.1-1-1.6.3.5.7 1 1 1.6zM57.199 199.682c-.3-.6-.7-1.2-1-1.8.3.6.6 1.2 1 1.8zM202.499 242.882l-.6.3.6-.3zM251.299 192.782c-.1.1-.1.2-.2.3.1-.1.1-.2.2-.3zM240.399 210.682c-.1.1-.2.3-.3.4.1-.1.2-.2.3-.4zM243.399 206.382c-.1.1-.2.2-.2.4.1-.1.2-.2.2-.4zM241.799 208.782l-.1.1.1-.1zM207.199 240.282l-.6.3c.2 0 .4-.1.6-.3zM204.999 241.582c-.1.1-.3.2-.4.2.1 0 .2-.1.4-.2zM237.099 214.982c-.1.1-.2.3-.3.4.1-.2.2-.3.3-.4zM235.499 216.882l-.3.3.3-.3zM250.199 194.982c-.1.1-.1.3-.2.4 0-.1.1-.2.2-.4zM248.799 197.582zM200.299 243.982l-.6.3.6-.3zM195.399 246.282c-.2.1-.5.2-.7.3.2-.1.4-.2.7-.3zM246.199 202.082s0 .1-.1.1c.1 0 .1 0 .1-.1zM197.599 245.282c-.1.1-.2.1-.4.2.1-.1.2-.1.4-.2zM247.599 199.682c-.1.1-.2.3-.2.4.1-.1.1-.2.2-.4zM244.799 204.282c-.1.1-.2.2-.2.4.1-.1.2-.2.2-.4zM222.399 229.782c-.2.1-.3.3-.5.4.2-.2.3-.3.5-.4zM218.199 233.082c-.2.1-.3.2-.5.4.1-.2.3-.3.5-.4zM224.199 228.182l-.3.3.3-.3zM228.199 224.582l-.4.4c.1-.2.2-.3.4-.4zM229.899 222.882zM233.599 218.982l-.2.2.2-.2zM216.099 234.582c-.1.1-.3.2-.4.3.2-.1.3-.2.4-.3zM226.299 226.282l-.3.3.3-.3zM231.899 220.782l-.4.4c.2-.1.3-.3.4-.4zM211.799 237.482c-.2.1-.4.2-.5.4.1-.1.3-.2.5-.4zM209.199 239.082c-.1 0-.1.1-.2.1.1 0 .2 0 .2-.1zM149.799 254.982h3-3zM213.799 236.182c-.1.1-.3.2-.4.3.1-.1.2-.2.4-.3zM73.299 221.182zM238.699 212.982s-.1 0 0 0c-.1 0 0 0 0 0zM257.899 175.182c0 .1-.1.3-.1.4 0-.1.1-.3.1-.4zM259.299 169.882c0 .1-.1.3-.1.4 0-.1.1-.3.1-.4zM187.999 249.082c-.2.1-.5.2-.7.2.2 0 .5-.1.7-.2zM256.299 180.382c0 .1-.1.2-.1.3 0-.1.1-.2.1-.3zM257.199 177.782c0 .1 0 .2-.1.2 0 0 0-.1.1-.2zM185.099 250.082c-.2.1-.4.1-.6.2.2-.1.4-.2.6-.2zM261.499 156.382v0zM259.799 167.382c0 .1 0 .2-.1.2.1 0 .1-.1.1-.2zM190.299 248.282c-.2.1-.5.2-.7.3.2-.1.5-.2.7-.3zM261.699 153.782v0zM260.799 161.882c0 .1 0 .3-.1.4.1-.1.1-.2.1-.4zM260.399 164.582c0 .1 0 .2-.1.3 0-.1 0-.2.1-.3zM182.799 250.782c-.3.1-.5.2-.8.2.3-.1.5-.2.8-.2zM180.199 251.482c-.2 0-.3.1-.5.1.1 0 .3-.1.5-.1zM253.499 187.782c-.1.1-.1.3-.2.4.1-.1.1-.2.2-.4zM252.399 190.382c0 .1-.1.1-.1.2.1-.1.1-.2.1-.2zM192.899 247.282c-.2.1-.3.1-.5.2.2-.1.4-.2.5-.2zM255.499 182.782c-.1.1-.1.3-.2.4.1-.1.1-.2.2-.4zM102.699 243.082c-.1 0-.2-.1-.3-.1.1 0 .2.1.3.1zM114.999 248.482c-.1 0-.2-.1-.3-.1 0 0 .2 0 .3.1zM217.699 233.382c-.5.4-1 .8-1.6 1.1.5-.3 1.1-.7 1.6-1.1zM184.499 250.182c-.6.2-1.2.4-1.8.5.7-.1 1.3-.3 1.8-.5zM174.199 252.882c-.7.2-1.5.3-2.3.4.8-.1 1.6-.3 2.3-.4zM117.399 249.282c-.1 0-.2-.1-.3-.1.1 0 .2.1.3.1zM197.199 245.482c-.6.3-1.2.5-1.8.8.6-.3 1.2-.6 1.8-.8zM213.399 236.482c-.5.4-1 .7-1.6 1 .5-.3 1-.6 1.6-1zM149.799 254.982h-.5.5zM154.799 254.982h-2 2zM157.399 254.882c-.6 0-1.1 0-1.7.1.6 0 1.2 0 1.7-.1zM229.899 222.882l-1.7 1.7 1.7-1.7zM176.599 252.282c-.5.1-1.1.2-1.6.4.5-.1 1.1-.2 1.6-.4zM194.699 246.582c-.6.2-1.2.5-1.7.7.5-.3 1.1-.5 1.7-.7zM112.299 247.382c-.1 0-.1 0 0 0-.1 0-.1 0 0 0zM104.999 244.282c-.1-.1-.2-.1-.4-.2.2.1.3.1.4.2zM227.799 224.982c-.5.5-1 .9-1.5 1.4.5-.5 1-1 1.5-1.4zM225.999 226.582c-.6.5-1.2 1.1-1.8 1.6.6-.5 1.2-1 1.8-1.6zM181.999 250.982c-.6.2-1.2.3-1.8.5.6-.2 1.2-.3 1.8-.5zM109.999 246.482c-.1-.1-.3-.1-.4-.2.1.1.2.1.4.2zM221.899 230.082zM223.899 228.482c-.5.4-1 .9-1.5 1.3.5-.5 1-.9 1.5-1.3zM215.699 234.882c-.6.5-1.3.9-1.9 1.3.6-.4 1.3-.9 1.9-1.3zM204.499 241.882c-.7.4-1.4.7-2.1 1.1.7-.4 1.4-.8 2.1-1.1zM189.599 248.482c-.5.2-1.1.4-1.6.6.5-.2 1.1-.4 1.6-.6zM144.099 254.682h-.3.3zM199.699 244.282c-.7.3-1.4.7-2.1 1 .7-.3 1.4-.6 2.1-1zM179.699 251.582c-.7.2-1.5.4-2.2.5.7-.1 1.4-.3 2.2-.5zM133.099 253.282h-.1.1zM135.899 253.782c-.1 0-.3 0-.4-.1.1.1.3.1.4.1zM141.499 254.482h-.4.4zM201.899 243.182c-.5.3-1.1.5-1.6.8.5-.2 1.1-.5 1.6-.8zM160.599 254.682c-.8.1-1.5.1-2.3.1.7.1 1.5 0 2.3-.1zM163.099 254.482c-.6.1-1.1.1-1.7.1.6 0 1.1 0 1.7-.1zM171.299 253.382c-.6.1-1.1.2-1.7.3.5-.1 1.1-.2 1.7-.3zM122.599 250.882c-.1 0-.3-.1-.4-.1.2.1.3.1.4.1zM168.699 253.782c-.6.1-1.3.2-1.9.3.6-.1 1.2-.2 1.9-.3zM146.899 254.882h-.2.2zM211.199 237.882c-.7.4-1.3.8-2 1.2.7-.4 1.4-.8 2-1.2zM119.899 250.082s-.1 0 0 0c-.1 0 0 0 0 0zM187.299 249.382c-.7.2-1.5.5-2.2.7.7-.3 1.5-.5 2.2-.7zM192.499 247.482c-.7.3-1.4.6-2.2.8.7-.3 1.4-.5 2.2-.8zM166.099 254.182c-.7.1-1.5.2-2.2.3.8-.1 1.5-.2 2.2-.3zM206.599 240.682c-.6.3-1.1.6-1.7.9.6-.3 1.2-.6 1.7-.9zM127.899 252.282c-.1 0-.3-.1-.4-.1.2 0 .3.1.4.1zM209.099 239.182c-.6.4-1.2.7-1.9 1.1.6-.3 1.3-.7 1.9-1.1zM130.399 252.782c-.1 0-.2 0-.3-.1.1.1.2.1.3.1zM252.299 190.482c-.3.8-.7 1.5-1.1 2.3.4-.8.8-1.5 1.1-2.3zM253.299 188.282l-.9 2.1.9-2.1zM255.299 183.182c-.6 1.6-1.2 3.1-1.8 4.6.6-1.5 1.2-3 1.8-4.6zM251.099 193.082c-.3.6-.6 1.3-1 1.9.4-.6.7-1.2 1-1.9zM256.199 180.682c-.2.7-.5 1.4-.7 2.1.2-.7.5-1.4.7-2.1zM257.099 177.982c-.3.8-.5 1.6-.8 2.4.3-.7.5-1.6.8-2.4zM244.599 204.682c-.4.6-.8 1.2-1.1 1.7.3-.5.7-1.1 1.1-1.7zM246.099 202.182c-.4.7-.9 1.4-1.3 2.1.5-.7.9-1.4 1.3-2.1zM248.799 197.582l-1.2 2.1 1.2-2.1zM249.999 195.382c-.4.7-.8 1.5-1.2 2.2.4-.7.8-1.4 1.2-2.2zM243.199 206.782c-.5.7-.9 1.3-1.4 2 .5-.7.9-1.3 1.4-2zM247.399 200.182c-.4.7-.8 1.3-1.2 2 .4-.7.8-1.4 1.2-2zM261.899 151.182c0 .9-.1 1.8-.2 2.6.1-.9.1-1.8.2-2.6zM261.999 148.482c0 .8-.1 1.5-.1 2.3 0-.8.1-1.5.1-2.3zM261.699 153.982c-.1.8-.1 1.6-.2 2.4.1-.8.2-1.6.2-2.4zM155.899 35.782h.5-.5zM257.799 175.582c-.2.7-.4 1.4-.6 2.2.2-.7.4-1.4.6-2.2zM157.699 35.882h.7-.7zM259.799 167.682c-.2.7-.3 1.5-.5 2.2.2-.8.3-1.5.5-2.2zM259.199 170.282c-.4 1.6-.8 3.3-1.3 4.9.5-1.6.9-3.2 1.3-4.9zM261.499 156.782l-.6 5.1.6-5.1zM260.699 162.282c-.1.7-.2 1.5-.4 2.2.2-.7.3-1.4.4-2.2zM260.299 164.882c-.2.8-.3 1.7-.5 2.5.2-.8.4-1.7.5-2.5zM241.699 208.882c-.4.6-.9 1.2-1.3 1.8.4-.6.9-1.2 1.3-1.8zM100.199 241.782l-.1-.1c0 .1.1.1.1.1zM236.799 215.282c-.4.5-.9 1-1.3 1.6.4-.5.8-1 1.3-1.6zM240.099 211.182c-.5.6-.9 1.2-1.4 1.8.4-.6.9-1.2 1.4-1.8zM238.599 213.082c-.5.6-1 1.3-1.5 1.9.5-.7 1-1.3 1.5-1.9zM233.399 219.282c-.5.5-1 1-1.4 1.5.4-.5.9-1 1.4-1.5zM235.199 217.182c-.5.6-1.1 1.2-1.6 1.8.5-.6 1.1-1.2 1.6-1.8zM153.899 35.782h.4-.4zM231.599 221.182c-.5.6-1.1 1.1-1.7 1.7l1.7-1.7zM63.199 208.982c-.1-.1-.1-.2-.2-.3 0 .2.1.2.2.3zM64.799 211.182c-.1-.2-.2-.3-.4-.5.1.2.2.3.4.5zM66.199 213.082l-.1-.1s.1 0 .1.1zM67.999 215.382c-.1-.1-.2-.3-.3-.4.1.1.2.2.3.4zM71.399 219.282l-.2-.2c.1 0 .2.1.2.2zM69.599 217.182c-.1-.1-.2-.2-.3-.4.1.2.2.3.3.4zM57.499 200.182l-.3-.6.3.6zM61.599 206.782c-.1-.2-.2-.3-.3-.5.1.2.2.4.3.5zM56.099 197.782c-.1-.1-.1-.2-.2-.3.1.2.2.3.2.3zM60.299 204.782c-.1-.2-.2-.3-.3-.5.1.1.2.3.3.5zM58.699 202.282c-.1-.1-.1-.2-.2-.3.1.1.1.2.2.3zM73.299 221.182l-.4-.4c.1.1.2.3.4.4zM88.999 234.782l-.2-.2.2.2zM91.299 236.382c-.1-.1-.2-.1-.3-.2.2.1.2.2.3.2zM93.499 237.782c-.1-.1-.2-.2-.4-.2.2.1.3.2.4.2zM87.099 233.382c-.1-.1-.3-.2-.4-.3.1.1.2.2.4.3zM98.099 240.582c-.1-.1-.3-.1-.4-.2.1.1.3.1.4.2zM80.899 228.382c-.1-.1-.2-.1-.2-.2 0 .1.1.2.2.2zM78.799 226.582l-.3-.3.3.3zM82.899 230.082c-.1-.1-.3-.2-.4-.3.1.1.2.2.4.3zM76.999 224.882zM54.899 195.482l-.3-.6.3.6zM47.099 175.782c-.1-.3-.2-.5-.2-.8 0 .3.1.6.2.8zM42.899 151.282v-.9.9zM43.099 154.382c0-.3 0-.5-.1-.8.1.3.1.6.1.8zM43.399 156.982c0-.3-.1-.6-.1-.9 0 .3 0 .6.1.9zM43.699 159.482c0-.2-.1-.4-.1-.6 0 .2 0 .4.1.6zM44.099 162.582c0-.3-.1-.6-.1-.9 0 .3.1.6.1.9zM44.499 164.982c0-.3-.1-.5-.1-.8 0 .3.1.6.1.8zM149.899 35.782h0zM148.099 35.882h.1c0-.1 0 0-.1 0zM42.799 145.382v.1c0-1.9 0-3.8.1-5.8-.1 1.9-.1 3.8-.1 5.7zM42.799 148.782v-.9.9zM53.799 193.282l-.3-.6.3.6zM42.899 139.482c0-.3 0-.6.1-.9 0 .3-.1.6-.1.9zM49.499 183.382c-.1-.2-.2-.5-.3-.7.2.2.3.4.3.7zM48.699 180.982c-.1-.2-.2-.4-.2-.7 0 .3.1.5.2.7zM50.499 185.782c0-.1-.1-.2-.1-.3 0 .1 0 .2.1.3zM51.599 188.382c-.1-.2-.2-.5-.3-.7.1.3.2.5.3.7zM52.499 190.582c-.1-.2-.1-.3-.2-.5.1.2.1.3.2.5zM151.899 35.782h.4-.4zM46.299 172.982c0-.2-.1-.4-.1-.5 0 .2 0 .3.1.5zM45.699 170.482c-.1-.3-.1-.6-.2-.8 0 .2.1.5.2.8zM47.799 178.182c-.1-.2-.1-.4-.2-.7 0 .2.1.4.2.7zM45.099 167.982c-.1-.2-.1-.5-.2-.7.1.2.2.5.2.7z" class="st6" fill="#2d2d2d"/>
  <path class="st6" d="M231.599 221.182l.4-.4c.5-.5 1-1 1.4-1.5l.2-.2c.5-.6 1.1-1.2 1.6-1.8l.3-.3c.4-.5.9-1 1.3-1.6.1-.1.2-.3.3-.4.5-.6 1-1.3 1.5-1.9v-.1c.5-.6.9-1.2 1.4-1.8.1-.1.2-.3.3-.4.4-.6.9-1.2 1.3-1.8l.1-.1c.5-.7.9-1.3 1.4-2 .1-.1.2-.2.2-.4.4-.6.8-1.2 1.1-1.7.1-.1.2-.2.2-.4.4-.7.9-1.4 1.3-2.1 0 0 0-.1.1-.1.4-.7.8-1.3 1.2-2 .1-.1.2-.3.2-.4l1.2-2.1c.4-.7.8-1.5 1.2-2.2.1-.1.1-.3.2-.4.3-.6.6-1.3 1-1.9.1-.1.1-.2.2-.3.4-.7.7-1.5 1.1-2.3 0-.1.1-.1.1-.2l.9-2.1c.1-.1.1-.3.2-.4.6-1.5 1.2-3.1 1.8-4.6.1-.1.1-.3.2-.4.3-.7.5-1.4.7-2.1 0-.1.1-.2.1-.3.3-.8.5-1.6.8-2.4 0-.1 0-.2.1-.2.2-.7.4-1.4.6-2.2 0-.1.1-.3.1-.4.5-1.6.9-3.2 1.3-4.9 0-.1.1-.3.1-.4.2-.7.3-1.5.5-2.2 0-.1 0-.2.1-.2.2-.8.3-1.7.5-2.5 0-.1 0-.2.1-.3.1-.7.3-1.5.4-2.2 0-.1 0-.3.1-.4.3-1.7.5-3.4.6-5.1v-.5c.1-.8.2-1.6.2-2.4v-.2c.1-.9.1-1.7.2-2.6v-.4c0-.8.1-1.5.1-2.3v-.4-2.7c0-58.1-45.5-105.9-102.7-109.4-.3 0-.6 0-.9-.1h-.7c-.5 0-.9 0-1.4-.1h-8.1-.1c-56.2 2.2-101.7 46.9-105.2 102.8 0 .3 0 .6-.1.9v.3c-.1 1.9-.1 3.9-.1 5.8V148.982c0 .5 0 1.1.1 1.6v.9c0 .8.1 1.5.1 2.3 0 .3 0 .5.1.8 0 .6.1 1.1.2 1.7 0 .3.1.6.1.9.1.6.1 1.2.2 1.9 0 .2.1.4.1.6.1.7.2 1.5.3 2.2 0 .3.1.6.1.9.1.5.2 1.1.3 1.6 0 .3.1.5.1.8.1.8.3 1.5.4 2.2 0 .2.1.5.2.7.1.6.2 1.1.4 1.7.1.3.1.6.2.8.2.7.3 1.3.5 2 0 .2.1.4.1.5.2.7.4 1.4.6 2 .1.3.1.5.2.8.2.6.3 1.1.5 1.7.1.2.1.4.2.7.2.7.5 1.5.7 2.2.1.2.2.4.2.7.2.6.4 1.1.6 1.6.1.2.2.5.3.7.3.7.5 1.4.8 2.2 0 .1.1.2.1.3.3.6.5 1.3.8 1.9.1.2.2.5.3.7.2.6.5 1.1.7 1.7.1.2.1.3.2.5.3.7.6 1.4 1 2.1l.3.6c.3.5.5 1.1.8 1.6l.3.6c.4.7.7 1.4 1.1 2.1.1.1.1.2.2.3.3.6.7 1.2 1 1.8l.3.6c.3.6.7 1.2 1 1.7.1.1.1.2.2.3.4.7.8 1.3 1.2 2 .1.2.2.3.3.5.3.5.7 1.1 1 1.6.1.2.2.3.3.5.4.7.9 1.3 1.3 1.9.1.1.1.2.2.3.4.6.8 1.1 1.2 1.7.1.2.2.3.4.5.4.6.9 1.2 1.3 1.7l.1.1c.5.6 1 1.2 1.5 1.9.1.1.2.3.3.4.4.5.8 1 1.3 1.5.1.1.2.2.3.4.5.6 1.1 1.2 1.6 1.8l.2.2c.5.5 1 1 1.4 1.5.1.1.2.3.4.4 1.1 1.2 2.2 2.3 3.4 3.4.1.1.2.2.4.3.5.5 1 .9 1.5 1.4l.3.3c.6.5 1.2 1.1 1.8 1.6.1.1.2.1.2.2.5.5 1.1.9 1.6 1.4.1.1.2.2.4.3 1.2 1 2.5 2 3.8 3 .1.1.2.2.4.3.6.4 1.2.9 1.8 1.3l.2.2c.7.5 1.3.9 2 1.4.1.1.2.1.3.2l1.8 1.2c.1.1.2.2.4.2 1.4.9 2.8 1.7 4.2 2.6.1.1.3.1.4.2.7.4 1.3.8 2 1.1l.1.1c.7.4 1.5.8 2.2 1.2.1 0 .2.1.3.1.7.3 1.3.7 2 1 .1.1.2.1.4.2l4.5 2.1c.1.1.3.1.4.2.7.3 1.5.6 2.2.9l2.4.9c.1 0 .2.1.3.1.7.3 1.4.5 2.1.7.1 0 .2.1.3.1.8.3 1.6.5 2.4.8.8.2 1.6.5 2.3.7.1 0 .3.1.4.1 1.6.5 3.3.9 4.9 1.3.1 0 .3.1.4.1.7.2 1.5.3 2.2.5.1 0 .2 0 .3.1.8.2 1.7.3 2.5.5h.1c.8.1 1.6.3 2.4.4.1 0 .3 0 .4.1 1.7.3 3.4.5 5.1.6h.4c.8.1 1.5.1 2.3.2h.3c.9.1 1.8.1 2.6.2h.2c.8 0 1.6.1 2.4.1h6.4c.6 0 1.1 0 1.7-.1h.8c.8 0 1.5-.1 2.3-.1.3 0 .6 0 .8-.1.6 0 1.1-.1 1.7-.1.3 0 .6-.1.9-.1.7-.1 1.5-.2 2.2-.3.2 0 .4-.1.6-.1.6-.1 1.3-.2 1.9-.3.3 0 .6-.1.9-.1.6-.1 1.1-.2 1.7-.3.2 0 .5-.1.7-.1.8-.1 1.5-.3 2.3-.4.3-.1.5-.1.8-.2.6-.1 1.1-.2 1.6-.4.3-.1.5-.1.8-.2.7-.2 1.5-.4 2.2-.5.2 0 .3-.1.5-.1.6-.2 1.2-.3 1.8-.5.3-.1.5-.1.8-.2.6-.2 1.2-.3 1.8-.5.2-.1.4-.1.6-.2.7-.2 1.5-.5 2.2-.7.2-.1.5-.2.7-.2.5-.2 1.1-.4 1.6-.6.2-.1.5-.2.7-.3.7-.3 1.4-.5 2.2-.8.2-.1.3-.1.5-.2.6-.2 1.2-.5 1.7-.7.2-.1.5-.2.7-.3.6-.3 1.2-.5 1.8-.8.1-.1.2-.1.4-.2.7-.3 1.4-.6 2.1-1l.6-.3c.5-.3 1.1-.5 1.6-.8l.6-.3c.7-.4 1.4-.7 2.1-1.1.1-.1.3-.2.4-.2.6-.3 1.1-.6 1.7-.9l.6-.3c.6-.4 1.3-.7 1.9-1.1.1 0 .1-.1.2-.1.7-.4 1.3-.8 2-1.2.2-.1.4-.2.5-.4.5-.3 1.1-.7 1.6-1 .1-.1.3-.2.4-.3.6-.4 1.3-.9 1.9-1.3.1-.1.3-.2.4-.3.5-.4 1-.8 1.6-1.1.2-.1.3-.2.5-.4 1.3-1 2.5-1.9 3.7-2.9.2-.1.3-.3.5-.4.5-.4 1-.9 1.5-1.3l.3-.3c.6-.5 1.2-1 1.8-1.6l.3-.3c.5-.4 1-.9 1.5-1.4l.4-.4c.6-.6 1.2-1.1 1.7-1.7 1.1-.9 1.6-1.4 2.2-2zm-150.8-143.3c9.5-10.1 21.2-18.2 34.2-23.6 5.5-2.3 10.5 4.3 6.8 9-5.2 6.7-9.8 13.8-13.6 21.3-1 2-3 3.2-5.2 3.2h-18c-5.1 0-7.8-6.2-4.2-9.9zm-11.6 114c-2.2 0-4.3-1.2-5.3-3.2-6.4-13.1-10-27.7-10-43.2s3.6-30.2 10-43.2c1-2 3-3.2 5.3-3.2h24.6c3.9 0 6.8 3.8 5.6 7.5-2.7 9-4.5 18.4-5.2 28-.2 3-2.8 5.4-5.8 5.4h-15c3.1 0 5.6 2.5 5.6 5.6 0 3.1-2.5 5.6-5.6 5.6h15c3 0 5.6 2.3 5.8 5.4.8 9.6 2.5 19 5.2 28 1.1 3.7-1.7 7.5-5.6 7.5h-24.6zm45.9 44.7c-13.1-5.4-24.7-13.5-34.3-23.6-3.5-3.8-.9-9.9 4.2-9.9h18c2.2 0 4.2 1.2 5.2 3.2 3.8 7.5 8.4 14.6 13.6 21.3 3.8 4.6-1.2 11.2-6.7 9zm31.7-12.9c0 5.3-6.6 7.9-10.2 4-4.5-4.9-8.5-10.1-12-15.5-2.6-3.9.2-9.1 4.9-9.1h11.5c3.2 0 5.9 2.6 5.9 5.9v14.7zm0-37.7c0 3.2-2.6 5.9-5.9 5.9h-23c-2.5 0-4.7-1.5-5.5-3.8-3.6-9.8-5.9-20-7-30.7-.3-3.4 2.4-6.4 5.8-6.4h29.6c3.2 0 5.9 2.6 5.9 5.9v29.1zm0-52c0 3.2-2.6 5.9-5.9 5.9h-29.6c-3.5 0-6.2-3-5.8-6.4 1-10.6 3.3-20.9 6.9-30.7.8-2.3 3.1-3.8 5.5-3.8h23c3.2 0 5.9 2.6 5.9 5.9v29.1zm0-52.1c0 3.2-2.6 5.9-5.9 5.9h-11.5c-4.7 0-7.5-5.2-4.9-9.1 3.6-5.5 7.6-10.7 12.1-15.6 3.6-3.9 10.2-1.4 10.2 4v14.8zm88.8 17.1c2.2 0 4.3 1.3 5.3 3.3 4.7 9.6 7.9 20.1 9.3 31.1.4 3.5-2.3 6.5-5.8 6.5h-27.9c-3 0-5.6-2.3-5.8-5.4-.8-9.6-2.5-19-5.2-28-1.1-3.7 1.7-7.5 5.6-7.5h24.5zm-45.8-44.7c13 5.4 24.7 13.5 34.2 23.6 3.5 3.8.9 9.9-4.2 9.9h-18c-2.2 0-4.2-1.2-5.2-3.2-3.8-7.5-8.4-14.6-13.6-21.3-3.7-4.7 1.3-11.3 6.8-9zm-31.8 12.8c0-5.3 6.6-7.9 10.2-4 4.5 4.9 8.5 10.1 12.1 15.6 2.5 3.9-.2 9.1-4.9 9.1h-11.5c-3.2 0-5.9-2.6-5.9-5.9v-14.8zm0 31.9h28.8c2.5 0 4.7 1.5 5.5 3.8 3.6 9.8 5.9 20 6.9 30.7.3 3.4-2.4 6.4-5.8 6.4h-29.6c-3.2 0-5.9-2.6-5.9-5.9v-35h.1zm0 57.9c0-3.2 2.6-5.9 5.9-5.9h29.6c3.5 0 6.2 3 5.8 6.4-1 10.6-3.4 20.9-7 30.7-.8 2.3-3.1 3.8-5.5 3.8h-23c-3.2 0-5.9-2.6-5.9-5.9v-29.1zm22.2 55.2c-3.6 5.5-7.6 10.7-12 15.5-3.6 3.9-10.2 1.4-10.2-4v-14.8c0-3.2 2.6-5.9 5.9-5.9h11.5c4.6.1 7.4 5.3 4.8 9.2zm2.7 15.3c15.9-20.3 25.5-44.8 27.6-71.1.2-3 2.8-5.4 5.8-5.4h27.9c3.5 0 6.3 3.1 5.8 6.6-4.4 35.8-28.1 65.6-60.3 78.9-5.5 2.4-10.5-4.2-6.8-9z" fill="#2d2d2d"/>
  <path class="st6" d="M67.899 145.382c0 3.1 2.5 5.6 5.6 5.6 3.1 0 5.6-2.5 5.6-5.6 0-3.1-2.5-5.6-5.6-5.6s-5.6 2.5-5.6 5.6zM217.499 191.882c3.1 0 5.6 2.5 5.6 5.6 0 3.1-2.5 5.6-5.6 5.6-3.1 0-5.6-2.5-5.6-5.6 0-3.1 2.5-5.6 5.6-5.6z" fill="#2d2d2d"/>
</svg>
